HIERARCHY
ROOT Hips
{
	OFFSET -3.958830 18.904000 13.208200
	CHANNELS 6 Xposition Yposition Zposition Zrotation Yrotation Xrotation 
	JOINT LHipJoint
	{
		OFFSET 0.000000 0.000000 0.000000
		CHANNELS 3 Zrotation Yrotation Xrotation
		JOINT LeftUpLeg
		{
			OFFSET 1.800000 -1.400000 0.085000
			CHANNELS 3 Zrotation Yrotation Xrotation
			JOINT LeftLeg
			{
				OFFSET 2.215000 -6.000000 0.000000
				CHANNELS 3 Zrotation Yrotation Xrotation
				JOINT LeftFoot
				{
					OFFSET 2.500000 -6.900000 0.000000
					CHANNELS 3 Zrotation Yrotation Xrotation
					JOINT LeftToeBase
					{
						OFFSET 0.200000 -0.500000 1.950000
						CHANNELS 3 Zrotation Yrotation Xrotation
						End Site
						{
							OFFSET 0.000000 0.000000 0.000000
						}
					}
				}
			}
		}
	}
	JOINT RHipJoint
	{
		OFFSET 0.000000 0.000000 0.000000
		CHANNELS 3 Zrotation Yrotation Xrotation
		JOINT RightUpLeg
		{
			OFFSET -1.800000 -1.400000 0.085000
			CHANNELS 3 Zrotation Yrotation Xrotation
			JOINT RightLeg
			{
				OFFSET -2.215000 -6.000000 0.000000
				CHANNELS 3 Zrotation Yrotation Xrotation
				JOINT RightFoot
				{
					OFFSET -2.500000 -6.900000 0.000000
					CHANNELS 3 Zrotation Yrotation Xrotation
					JOINT RightToeBase
					{
						OFFSET -0.200000 -0.500000 1.950000
						CHANNELS 3 Zrotation Yrotation Xrotation
						End Site
						{
							OFFSET 0.000000 0.000000 0.000000
						}
					}
				}
			}
		}
	}
	JOINT LowerBack
	{
		OFFSET 0.000000 0.000000 0.000000
		CHANNELS 3 Zrotation Yrotation Xrotation
		JOINT Spine
		{
			OFFSET -0.087000 1.940000 -0.288900
			CHANNELS 3 Zrotation Yrotation Xrotation
			JOINT Spine1
			{
				OFFSET 0.000000 1.950000 0.060000
				CHANNELS 3 Zrotation Yrotation Xrotation
				JOINT Neck
				{
					OFFSET 0.000000 0.000000 0.000000
					CHANNELS 3 Zrotation Yrotation Xrotation
					JOINT Neck1
					{
						OFFSET 0.000000 1.600000 0.340000
						CHANNELS 3 Zrotation Yrotation Xrotation
						JOINT Head
						{
							OFFSET 0.000000 1.667000 -0.240000
							CHANNELS 3 Zrotation Yrotation Xrotation
							End Site
							{
								OFFSET 0.000000 0.000000 0.000000
							}
						}
					}
				}
				JOINT LeftShoulder
				{
					OFFSET 0.000000 0.000000 0.000000
					CHANNELS 3 Zrotation Yrotation Xrotation
					JOINT LeftArm
					{
						OFFSET 2.700000 1.550000 -0.730000
						CHANNELS 3 Zrotation Yrotation Xrotation
						JOINT LeftForeArm
						{
							OFFSET 5.450000 0.000000 0.000000
							CHANNELS 3 Zrotation Yrotation Xrotation
							JOINT LeftHand
							{
								OFFSET 3.450000 0.000000 0.000000
								CHANNELS 3 Zrotation Yrotation Xrotation
								JOINT LeftHandIndex1
								{
									OFFSET 0.750000 0.000000 0.000000
									CHANNELS 3 Zrotation Yrotation Xrotation
									End Site
									{
										OFFSET 0.000000 0.000000 0.000000
									}
								}
							}
						}
					}
				}
				JOINT RightShoulder
				{
					OFFSET 0.000000 0.000000 0.000000
					CHANNELS 3 Zrotation Yrotation Xrotation
					JOINT RightArm
					{
						OFFSET -2.700000 1.550000 -0.730000
						CHANNELS 3 Zrotation Yrotation Xrotation
						JOINT RightForeArm
						{
							OFFSET -5.450000 0.000000 0.000000
							CHANNELS 3 Zrotation Yrotation Xrotation
							JOINT RightHand
							{
								OFFSET -3.450000 0.000000 0.000000
								CHANNELS 3 Zrotation Yrotation Xrotation
								JOINT RightHandIndex1
								{
									OFFSET -0.750000 0.000000 0.000000
									CHANNELS 3 Zrotation Yrotation Xrotation
									End Site
									{
										OFFSET 0.000000 0.000000 0.000000
									}
								}
							}
						}
					}
				}
			}
		}
	}
}
MOTION
Frames: 9
Frame Time: 0.016667
-0.084700 12.911340 -2.613080 -61.473439 -52.325915 13.439253 -16.110391 8.239471 5.045422 -45.988440 -23.518202 -59.512371 102.849376 -19.461333 41.639736 2.922493 16.473955 -0.619465 0.642510 0.603760 0.662850 18.437064 -4.714131 7.447790 -60.220987 16.541568 -30.580085 128.212809 -12.855305 8.247972 -2.175618 -7.926413 1.602273 0.284490 -0.253220 -0.010320 -4.206060 -1.574985 -11.123877 14.031901 4.110596 66.878606 -16.810351 9.733585 20.435091 11.846909 0.260538 -15.864621 -3.531567 6.495147 71.618315 -3.639100 0.733130 -10.442100 -22.592195 -29.358699 14.140960 -19.562432 -5.717115 1.517256 6.299834 3.291380 -0.494350 -3.460964 2.716858 0.519040 -0.254240 0.330320 -0.003180 -2.584504 38.499637 -2.703480 -9.045455 27.957269 -18.618249 -54.322218 33.050787 -18.780037 2.780240 -1.455065 0.009400 0.267810 -0.172480 -0.169220 
-0.135640 12.951410 -2.589060 -64.001606 -54.784759 13.527726 -16.062715 8.509570 5.177806 -38.844279 -23.457455 -60.378609 113.286333 -22.849775 41.974310 3.106058 16.792872 -0.632906 0.578030 0.504480 0.720430 18.360897 -5.269481 6.813093 -56.769031 17.302321 -34.008657 126.718820 -26.276858 13.085411 -2.564344 -9.524388 1.156345 0.208000 -0.276980 -0.003740 -4.193620 -1.530463 -10.966082 13.282087 3.309481 68.961894 -17.375476 10.019773 19.090354 11.520589 1.552290 -16.740102 -0.813932 4.401287 73.287484 -6.778320 2.293740 -10.251820 -25.146546 -28.834563 13.285138 -18.800021 -4.682108 1.277963 4.845755 4.606534 -0.538469 -3.510609 2.564517 0.551990 -0.249070 0.357540 -0.058370 0.568790 37.141233 -0.481818 -4.350900 26.722660 -17.925852 -53.022707 32.000379 -17.997610 2.722861 -1.386951 -0.008630 0.276930 -0.145240 -0.212520 
-0.162250 12.985050 -2.553950 -63.969093 -53.741448 11.726218 -16.107419 8.586154 5.706668 -30.336712 -24.840468 -57.721138 120.896342 -28.233896 44.142916 3.169094 16.867957 -0.667176 0.604950 0.530940 0.734870 18.232875 -5.698323 6.013510 -53.190875 16.958807 -34.341376 120.372680 -38.312727 18.730418 -2.777994 -10.543082 0.832489 0.227880 -0.322580 0.005540 -4.102830 -1.773149 -10.863903 12.847313 0.309343 70.349244 -16.866953 9.061773 19.422260 11.200350 2.059071 -17.896967 -0.736698 4.587704 75.574024 -5.208400 2.550210 -10.511730 -27.010711 -30.048948 13.197909 -18.775719 -4.699123 1.345840 4.347576 5.449568 -0.574594 -3.506980 2.546049 0.600360 -0.276210 0.383440 -0.085470 3.268954 37.071709 1.391325 -2.412241 24.759306 -18.298192 -50.679088 28.485900 -15.812282 2.652633 -1.436561 -0.003690 0.247350 -0.135090 -0.240550 
-0.226020 12.976000 -2.524550 -66.666001 -55.132703 12.726320 -16.056213 8.618051 5.923611 -21.875676 -24.363708 -57.009406 126.345646 -31.354830 43.312324 3.229945 16.342882 -0.533290 0.733450 0.678700 0.779800 18.206943 -6.121845 5.570841 -48.334576 17.965454 -38.112826 107.109852 -50.756602 30.453705 -2.960226 -11.402441 0.563393 0.274650 -0.402090 0.036560 -4.196768 -1.584824 -10.742078 13.866219 -2.004764 70.828634 -16.995743 9.376383 20.153693 10.914119 2.329981 -19.210094 -1.654716 4.736956 77.815538 -2.190940 1.361840 -9.731930 -28.199548 -30.948487 12.829741 -19.602576 -6.081472 1.310469 5.487091 5.267739 -0.424612 -3.440841 2.706780 0.572240 -0.331950 0.434210 -0.041490 4.997329 37.181196 3.123420 -0.830378 22.409578 -19.078699 -48.922580 25.150506 -14.065311 2.728916 -1.626522 0.103120 0.150730 -0.230700 -0.206170 
-0.260780 12.975760 -2.475310 -68.513078 -56.614746 12.896414 -16.069874 8.611527 5.895880 -11.303458 -23.325295 -53.666106 117.525444 -39.502998 57.261127 3.419551 17.622904 -0.881265 0.827760 0.760340 0.856580 18.161692 -5.960223 5.677459 -45.791734 19.116183 -39.384758 86.727642 -55.985704 45.547980 -3.193571 -12.438951 0.222975 0.344750 -0.478800 0.037390 -4.140363 -1.925286 -10.756528 13.231153 -3.223771 72.174308 -16.347929 9.643926 20.598323 10.382660 3.154844 -20.502697 -1.506997 4.772427 81.605577 0.553670 0.816690 -12.658190 -29.805777 -32.134517 12.172545 -19.847841 -7.434830 0.960713 7.503293 4.441801 -0.498034 -3.417422 2.694359 0.694500 -0.412080 0.506590 -0.060100 7.518832 37.147605 5.210945 3.076158 20.828208 -20.408064 -47.174433 24.229870 -13.450153 2.662152 -1.646925 0.088050 0.171740 -0.238480 -0.255470 
-0.302830 12.974040 -2.404750 -71.655541 -59.714396 14.190191 -16.104706 8.662245 5.840279 -1.330474 -20.557094 -48.755147 95.221802 -43.788077 82.968797 4.135006 21.062012 -1.560326 0.904650 0.856010 0.933490 18.111505 -5.682521 5.859759 -42.381710 21.191588 -41.155424 60.940252 -53.384084 63.236247 -3.631148 -14.627552 -0.343275 0.398830 -0.535840 0.007560 -4.064802 -2.266258 -10.784317 12.489379 -3.594318 74.032440 -15.596705 10.514399 21.271042 10.042038 3.433423 -22.396821 -3.866923 5.898369 85.303285 1.488420 0.174840 -14.749090 -31.602716 -33.546437 11.344596 -19.567958 -10.060676 0.288382 9.829548 3.726187 -0.596161 -3.416576 2.640366 0.757240 -0.476730 0.574390 -0.060930 9.804350 38.320246 7.601189 5.810060 17.695869 -21.860281 -43.329436 22.292377 -11.667990 2.705008 -1.693642 0.089750 0.227330 -0.274810 -0.269570 
-0.361260 12.923990 -2.373090 -74.346143 -60.470388 17.216749 -16.092686 8.843938 5.925563 5.757541 -19.179327 -46.772549 73.353818 -42.036524 105.314804 4.881728 24.854872 -2.187465 0.960500 0.921380 0.975520 18.131250 -5.871220 5.687949 -37.288711 20.092035 -43.852950 38.716439 -46.605938 76.637588 -3.834254 -16.312118 -0.766053 0.439990 -0.537770 0.030670 -4.083466 -2.214956 -10.642000 13.864963 -5.607795 72.179915 -15.596820 10.514167 22.264228 10.126036 3.820736 -22.965945 -3.365039 5.336195 88.066875 1.257130 0.292160 -14.622470 -34.227968 -33.622654 10.351464 -17.196494 -14.008147 -1.894427 13.807338 0.898550 -1.195788 -3.479316 2.712103 0.743590 -0.458810 0.585520 -0.053570 12.269615 37.547208 9.237408 10.066079 17.918727 -18.996810 -37.233922 15.370914 -8.325933 2.672284 -1.707856 0.111940 0.227920 -0.292940 -0.270390 
-0.437710 12.855780 -2.366570 -77.342006 -62.562999 20.081450 -16.053228 9.635700 5.732362 11.282056 -16.426307 -44.705353 58.976387 -36.856244 120.351150 4.944365 25.359469 -2.302594 1.046060 1.028410 1.016580 18.127410 -6.590163 5.168643 -29.200064 18.674774 -45.950940 17.773729 -33.164420 85.333205 -3.512419 -15.750944 -0.717682 0.495230 -0.582630 0.033490 -4.001246 -2.259974 -10.218715 13.037588 -6.185699 71.519654 -14.353399 10.422118 22.457920 9.446092 3.099985 -24.055112 -6.672826 7.478369 90.886146 2.405140 0.258190 -15.576830 -33.600097 -34.340721 9.430630 -18.894643 -15.746024 -5.307137 18.883123 -5.663654 -2.687017 -3.324538 2.881412 0.773570 -0.502480 0.637480 -0.033020 13.340728 38.755541 10.864817 13.384300 17.706351 -15.607039 -30.476420 10.330626 -5.524108 2.703017 -1.641504 0.142510 0.231210 -0.331320 -0.266010 
-0.482310 12.757950 -2.367230 -78.774682 -64.381031 21.987580 -16.025287 10.224355 5.659419 15.344497 -15.569993 -43.912685 49.842181 -29.123851 130.100637 4.233524 22.221064 -1.828873 1.128420 1.124260 1.119840 18.098875 -7.291900 4.597359 -20.071129 15.769681 -47.676285 1.865902 -17.264073 81.982666 -2.687949 -12.618937 -0.013084 0.555970 -0.608190 0.020060 -3.920471 -2.265837 -9.868439 12.363545 -6.279965 71.075070 -12.805295 10.277706 21.004912 8.644246 3.096051 -22.752725 -5.650935 6.439990 92.232821 1.935230 1.855700 -18.016950 -34.323305 -34.683496 7.551949 -18.974153 -20.387298 -7.544174 21.604092 -9.555529 -4.085816 -3.284408 2.796968 0.816910 -0.520850 0.697300 -0.004480 15.786699 38.599690 11.494298 18.364258 17.643240 -12.157139 -25.640928 8.543599 -4.127184 2.644434 -1.498786 0.127590 0.294870 -0.392400 -0.290020 
